<?xml version="1.0" encoding="UTF-8" standalone="no"?>
<!DOCTYPE svg PUBLIC "-//W3C//DTD SVG 1.1//EN" "http://www.w3.org/Graphics/SVG/1.1/DTD/svg11.dtd">
<svg width="100%" height="100%" viewBox="0 0 622 140" version="1.1" xmlns="http://www.w3.org/2000/svg" xmlns:xlink="http://www.w3.org/1999/xlink" xml:space="preserve" xmlns:serif="http://www.serif.com/" style="fill-rule:evenodd;clip-rule:evenodd;stroke-linejoin:round;stroke-miterlimit:2;">
    <g id="Lag-1" serif:id="Lag 1">
        <rect x="0" y="0" width="622" height="140" style="fill:rgb(208,0,77);"/>
        <g transform="matrix(1,0,0,1,32.6401,109.211)">
            <path d="M0,-79.313L38.092,-79.313L38.092,-63.897L15.639,-63.897L15.639,-48.594L36.417,-48.594L36.417,-33.178L15.639,-33.178L15.639,-15.417L38.539,-15.417L38.539,0L0,0L0,-79.313Z" style="fill:white;fill-rule:nonzero;"/>
        </g>
        <g transform="matrix(1,0,0,1,77.3208,109.211)">
            <path d="M0,-79.313L11.729,-79.313L30.719,-32.62L30.719,-79.313L46.358,-79.313L46.358,0L33.735,0L15.639,-42.227L15.639,0L0,0L0,-79.313Z" style="fill:white;fill-rule:nonzero;"/>
        </g>
        <g transform="matrix(1,0,0,1,130.938,109.211)">
            <path d="M0,-79.313L15.64,-79.313L15.64,-47.588L31.39,-47.588L31.39,-79.313L47.029,-79.313L47.029,0L31.39,0L31.39,-32.172L15.64,-32.172L15.64,0L0,0L0,-79.313Z" style="fill:white;fill-rule:nonzero;"/>
        </g>
        <g transform="matrix(1,0,0,1,185.225,109.211)">
            <path d="M0,-79.313L38.092,-79.313L38.092,-63.897L15.64,-63.897L15.64,-48.594L36.417,-48.594L36.417,-33.178L15.64,-33.178L15.64,-15.417L38.539,-15.417L38.539,0L0,0L0,-79.313Z" style="fill:white;fill-rule:nonzero;"/>
        </g>
        <g transform="matrix(1,0,0,1,259.284,45.3139)">
            <path d="M0,48.48C11.394,48.48 22.788,39.655 22.788,23.904C22.788,8.266 11.617,-0.001 0.223,-0.001L-13.74,-0.001L-13.74,48.48L0,48.48ZM-29.379,-15.416L1.676,-15.416C18.877,-15.416 38.65,-3.129 38.65,24.239C38.65,50.49 18.766,63.896 1.229,63.896L-29.379,63.896L-29.379,-15.416Z" style="fill:white;fill-rule:nonzero;"/>
        </g>
        <g transform="matrix(1,0,0,1,300.948,32.1326)">
            <path d="M0,74.843L0,58.757C3.463,60.433 9.607,62.779 13.963,62.779C19.325,62.779 22.899,59.986 22.899,55.182C22.899,44.124 -1.676,37.756 -1.676,17.984C-1.676,4.356 10.054,-3.352 22.677,-3.352C29.379,-3.352 34.965,-1.342 36.527,-0.113L36.527,15.749C33.064,14.185 27.032,12.063 22.899,12.063C17.873,12.063 14.188,14.409 14.188,18.543C14.188,27.367 38.762,36.304 38.762,55.629C38.762,70.151 27.257,78.195 14.633,78.195C8.937,78.195 2.905,76.295 0,74.843" style="fill:white;fill-rule:nonzero;"/>
        </g>
        <g transform="matrix(1,0,0,1,380.258,45.3139)">
            <path d="M0,48.48L0,63.896L-35.301,63.896L-35.301,-15.416L-19.661,-15.416L-19.661,48.48L0,48.48Z" style="fill:white;fill-rule:nonzero;"/>
        </g>
        <g transform="matrix(1,0,0,1,0,-0.893)">
            <rect x="385.281" y="30.79" width="15.64" height="79.313" style="fill:white;"/>
        </g>
        <g transform="matrix(1,0,0,1,407.286,32.1326)">
            <path d="M0,74.843L0,58.757C3.463,60.433 9.606,62.779 13.963,62.779C19.325,62.779 22.899,59.986 22.899,55.182C22.899,44.124 -1.676,37.756 -1.676,17.984C-1.676,4.356 10.054,-3.352 22.677,-3.352C29.379,-3.352 34.965,-1.342 36.527,-0.113L36.527,15.749C33.064,14.185 27.032,12.063 22.899,12.063C17.873,12.063 14.188,14.409 14.188,18.543C14.188,27.367 38.762,36.304 38.762,55.629C38.762,70.151 27.257,78.195 14.633,78.195C8.937,78.195 2.904,76.295 0,74.843" style="fill:white;fill-rule:nonzero;"/>
        </g>
        <g transform="matrix(1,0,0,1,493.856,93.794)">
            <path d="M0,-48.481L-14.856,-48.481L-14.856,15.416L-30.495,15.416L-30.495,-48.481L-45.353,-48.481L-45.353,-63.897L0,-63.897L0,-48.481Z" style="fill:white;fill-rule:nonzero;"/>
        </g>
        <g transform="matrix(1,0,0,1,498.321,109.211)">
            <path d="M0,-79.313L38.092,-79.313L38.092,-63.897L15.64,-63.897L15.64,-48.594L36.416,-48.594L36.416,-33.178L15.64,-33.178L15.64,-15.417L38.539,-15.417L38.539,0L0,0L0,-79.313Z" style="fill:white;fill-rule:nonzero;"/>
        </g>
        <g transform="matrix(1,0,0,1,543.001,109.211)">
            <path d="M0,-79.313L11.729,-79.313L30.72,-32.62L30.72,-79.313L46.358,-79.313L46.358,0L33.736,0L15.641,-42.227L15.641,0L0,0L0,-79.313Z" style="fill:white;fill-rule:nonzero;"/>
        </g>
    </g>
</svg>
